<svg width="25" height="25" viewBox="0 0 25 25" fill="none" xmlns="http://www.w3.org/2000/svg">
    <path d="M16.2587 4.15566C15.2103 3.60993 14.0652 3.27515 12.8887 3.17043C11.7122 3.06571 10.5274 3.1931 9.40183 3.54533C8.2763 3.89756 7.23212 4.46772 6.32891 5.22328C5.4257 5.97883 4.68115 6.90498 4.13777 7.94883C3.59439 8.99268 3.26282 10.1338 3.162 11.307C3.06117 12.4803 3.19306 13.6626 3.55014 14.7867C3.90721 15.9107 4.48248 16.9543 5.2431 17.8579C6.00371 18.7616 6.93478 19.5076 7.98315 20.0533L12.1209 12.1045L16.2587 4.15566Z" fill="#121212"/>
    <path d="M7.98306 20.0532C9.02817 20.5973 10.1701 20.9304 11.3435 21.0336C12.517 21.1369 13.6991 21.0081 14.8223 20.6548C15.9454 20.3015 16.9877 19.7305 17.8896 18.9744C18.7915 18.2184 19.5353 17.2921 20.0786 16.2484C20.6219 15.2047 20.9541 14.064 21.0561 12.8916C21.1581 11.7191 21.0279 10.5378 20.6731 9.41512C20.3183 8.29242 19.7457 7.2503 18.988 6.34827C18.2304 5.44624 17.3025 4.70195 16.2574 4.15792L12.1202 12.1056L7.98306 20.0532Z" fill="#B4B4B4"/>
</svg>
