<svg width="25" height="25" viewBox="0 0 25 25" fill="none" xmlns="http://www.w3.org/2000/svg">
    <path d="M16.2587 4.15547C15.2103 3.60975 14.0652 3.27497 12.8887 3.17025C11.7122 3.06553 10.5274 3.19292 9.40183 3.54514C8.2763 3.89737 7.23212 4.46754 6.32891 5.2231C5.4257 5.97865 4.68115 6.90479 4.13777 7.94865C3.59439 8.9925 3.26282 10.1336 3.162 11.3069C3.06117 12.4801 3.19306 13.6625 3.55014 14.7865C3.90721 15.9105 4.48248 16.9541 5.2431 17.8577C6.00371 18.7614 6.93478 19.5074 7.98315 20.0531L12.1209 12.1043L16.2587 4.15547Z" fill="#F7F7F7"/>
    <path d="M7.98306 20.0533C9.02817 20.5974 10.1701 20.9305 11.3435 21.0337C12.517 21.1369 13.6991 21.0082 14.8223 20.6549C15.9454 20.3016 16.9877 19.7306 17.8896 18.9745C18.7915 18.2185 19.5353 17.2921 20.0786 16.2484C20.6219 15.2047 20.9541 14.0641 21.0561 12.8917C21.1581 11.7192 21.0279 10.5379 20.6731 9.41521C20.3183 8.29251 19.7457 7.25039 18.988 6.34836C18.2304 5.44633 17.3025 4.70205 16.2574 4.15801L12.1202 12.1057L7.98306 20.0533Z" fill="#B4B4B4"/>
</svg>
